<svg width="32" height="32" viewBox="0 0 32 32" fill="none" xmlns="http://www.w3.org/2000/svg">
    <path d="M23.4225 26.5262C23.4917 26.7147 23.5223 26.9151 23.5126 27.1157C23.5028 27.3163 23.4529 27.5128 23.3658 27.6937C23.2787 27.8747 23.1561 28.0362 23.0054 28.1689C22.8546 28.3016 22.6788 28.4026 22.4883 28.4661C22.2978 28.5295 22.0965 28.5541 21.8963 28.5383C21.6961 28.5225 21.5012 28.4666 21.323 28.3741C21.1448 28.2815 20.987 28.1541 20.8589 27.9995C20.7309 27.8448 20.6352 27.666 20.5775 27.4737L19.5775 24.4737C19.5083 24.2852 19.4777 24.0847 19.4874 23.8841C19.4972 23.6836 19.5471 23.487 19.6342 23.3061C19.7213 23.1252 19.8439 22.9636 19.9946 22.8309C20.1454 22.6983 20.3212 22.5972 20.5117 22.5338C20.7022 22.4703 20.9035 22.4458 21.1037 22.4616C21.3039 22.4774 21.4988 22.5332 21.677 22.6257C21.8552 22.7183 22.013 22.8457 22.1411 23.0003C22.2691 23.155 22.3648 23.3338 22.4225 23.5262L23.4225 26.5262ZM16 22.9999C15.6022 22.9999 15.2206 23.1579 14.9393 23.4393C14.658 23.7206 14.5 24.1021 14.5 24.4999V27.9999C14.5 28.3977 14.658 28.7793 14.9393 29.0606C15.2206 29.3419 15.6022 29.4999 16 29.4999C16.3978 29.4999 16.7794 29.3419 17.0607 29.0606C17.342 28.7793 17.5 28.3977 17.5 27.9999V24.4999C17.5 24.1021 17.342 23.7206 17.0607 23.4393C16.7794 23.1579 16.3978 22.9999 16 22.9999ZM11.4738 22.5774C11.0965 22.452 10.6848 22.4814 10.3293 22.6593C9.97369 22.8372 9.7033 23.149 9.5775 23.5262L8.5775 26.5262C8.50832 26.7147 8.4777 26.9151 8.48744 27.1157C8.49719 27.3163 8.5471 27.5128 8.63422 27.6937C8.72135 27.8747 8.84391 28.0362 8.99464 28.1689C9.14537 28.3016 9.3212 28.4026 9.51171 28.4661C9.70222 28.5295 9.90353 28.5541 10.1037 28.5383C10.3039 28.5225 10.4988 28.4666 10.677 28.3741C10.8552 28.2815 11.013 28.1541 11.1411 27.9995C11.2691 27.8448 11.3648 27.666 11.4225 27.4737L12.4225 24.4737C12.548 24.0964 12.5185 23.6847 12.3406 23.3292C12.1627 22.9736 11.8509 22.7032 11.4738 22.5774ZM31.5 13.9999C31.5 16.2399 29.7213 18.2362 26.49 19.6249C23.6637 20.8362 19.9375 21.4999 16 21.4999C12.0625 21.4999 8.33625 20.8324 5.51 19.6249C2.27875 18.2362 0.5 16.2399 0.5 13.9999C0.5 10.9924 3.66 8.49991 8.98875 7.26366C9.68062 6.22575 10.5937 5.35386 11.6624 4.71057C12.7311 4.06728 13.9289 3.66853 15.17 3.54294C16.411 3.41736 17.6644 3.56805 18.8404 3.9842C20.0163 4.40035 21.0855 5.07165 21.9713 5.94991C22.3809 6.35465 22.7489 6.79937 23.07 7.27741C28.3625 8.51741 31.5 11.0062 31.5 13.9999ZM10.5 12.1037V12.4787C10.5001 12.5894 10.537 12.6971 10.6048 12.7846C10.6727 12.8722 10.7677 12.9347 10.875 12.9624C12.5579 13.3327 14.2769 13.5129 16 13.4999C17.7229 13.5142 19.442 13.3351 21.125 12.9662C21.2323 12.9385 21.3273 12.8759 21.3952 12.7884C21.463 12.7008 21.4999 12.5932 21.5 12.4824V11.9999C21.5 10.5412 20.9205 9.14227 19.8891 8.11082C18.8576 7.07937 17.4587 6.49991 16 6.49991H15.9263C12.9338 6.53866 10.5 9.05366 10.5 12.1037ZM28.5 13.9999C28.5 13.1699 27.5437 12.4049 26.9737 12.0212C26.1749 11.5049 25.315 11.0901 24.4137 10.7862C24.4708 11.1882 24.4997 11.5938 24.5 11.9999V12.4912C24.5013 13.2808 24.2339 14.0474 23.7419 14.6651C23.2499 15.2827 22.5625 15.7146 21.7925 15.8899C19.8906 16.3096 17.9476 16.5143 16 16.4999C14.0528 16.5142 12.1102 16.3095 10.2087 15.8899C9.43878 15.7149 8.7512 15.2833 8.25896 14.6659C7.76672 14.0485 7.49908 13.282 7.5 12.4924V12.1087C7.50052 11.6638 7.53478 11.2196 7.6025 10.7799C6.69941 11.0841 5.83744 11.4989 5.03625 12.0149C4.4625 12.3987 3.5 13.1674 3.5 13.9999C3.5 15.8349 8.375 18.4999 16 18.4999C23.625 18.4999 28.5 15.8349 28.5 13.9999Z" fill="#fff"/>
</svg>
